<?xml version="1.0" encoding="UTF-8"?>
<!DOCTYPE svg PUBLIC "-//W3C//DTD SVG 1.1//EN" "http://www.w3.org/Graphics/SVG/1.1/DTD/svg11.dtd">
<svg xmlns="http://www.w3.org/2000/svg" version="1.1" width="359px" height="70px" style="shape-rendering:geometricPrecision; text-rendering:geometricPrecision; image-rendering:optimizeQuality; fill-rule:evenodd; clip-rule:evenodd" xmlns:xlink="http://www.w3.org/1999/xlink">
<g><path style="opacity:1" fill="#fdfefe" d="M -0.5,-0.5 C 119.167,-0.5 238.833,-0.5 358.5,-0.5C 358.5,22.8333 358.5,46.1667 358.5,69.5C 238.833,69.5 119.167,69.5 -0.5,69.5C -0.5,46.1667 -0.5,22.8333 -0.5,-0.5 Z"/></g>
<g><path style="opacity:1" fill="#88d7f6" d="M 182.5,13.5 C 184.948,12.5269 187.615,12.1936 190.5,12.5C 190.737,13.791 190.404,14.791 189.5,15.5C 187.721,13.6565 185.388,12.9898 182.5,13.5 Z"/></g>
<g><path style="opacity:1" fill="#93dbf6" d="M 217.5,13.5 C 220.355,12.1968 223.355,12.1968 226.5,13.5C 226.376,14.1067 226.043,14.44 225.5,14.5C 223.052,13.5269 220.385,13.1936 217.5,13.5 Z"/></g>
<g><path style="opacity:1" fill="#1bb1f0" d="M 20.5,42.5 C 29.8333,43.1667 39.1667,43.8333 48.5,44.5C 46.5899,46.5617 44.2565,48.0617 41.5,49C 30.1667,49.6667 18.8333,49.6667 7.5,49C 5.16667,47.6667 4.16667,45.6667 4.5,43C 6.45562,33.7634 9.78896,25.0967 14.5,17C 16.6705,15.4138 19.0038,14.0804 21.5,13C 32.1667,12.3333 42.8333,12.3333 53.5,13C 56.5341,14.1912 58.2007,16.3579 58.5,19.5C 48.4944,19.3335 38.4944,19.5002 28.5,20C 24.1514,26.8778 21.4847,34.3778 20.5,42.5 Z"/></g>
<g><path style="opacity:1" fill="#1bb1f0" d="M 71.5,12.5 C 83.8378,12.3335 96.1712,12.5001 108.5,13C 112.292,15.0527 113.458,18.2194 112,22.5C 109.53,29.578 106.863,36.578 104,43.5C 102.062,46.1059 99.5616,47.9392 96.5,49C 83.5,49.6667 70.5,49.6667 57.5,49C 54.6508,46.4406 53.8175,43.2739 55,39.5C 57.3995,31.6226 60.5662,24.1226 64.5,17C 66.8981,15.4758 69.2314,13.9758 71.5,12.5 Z"/></g>
<g><path style="opacity:1" fill="#1bb1f0" d="M 127.5,12.5 C 139.838,12.3335 152.171,12.5001 164.5,13C 169.28,16.8771 169.78,21.3771 166,26.5C 164.316,28.3513 162.483,30.018 160.5,31.5C 163.566,40.1996 160.566,46.033 151.5,49C 136.822,49.8328 122.155,49.6662 107.5,48.5C 111.039,38.3826 114.872,28.3826 119,18.5C 121.637,16.109 124.47,14.109 127.5,12.5 Z"/></g>
<g><path style="opacity:1" fill="#10b0f0" d="M 182.5,13.5 C 185.388,12.9898 187.721,13.6565 189.5,15.5C 187.832,20.1715 186.165,24.8382 184.5,29.5C 183.957,29.56 183.624,29.8933 183.5,30.5C 189.988,31.8174 196.322,31.8174 202.5,30.5C 203.458,30.0472 204.292,29.3805 205,28.5C 206.513,21.1643 210.68,16.1643 217.5,13.5C 220.385,13.1936 223.052,13.5269 225.5,14.5C 221.097,26.0414 217.097,37.7081 213.5,49.5C 208.5,49.5 203.5,49.5 198.5,49.5C 198.883,45.6807 199.883,42.014 201.5,38.5C 195.193,37.3361 188.859,37.1694 182.5,38C 180.169,41.1471 178.502,44.6471 177.5,48.5C 172.544,49.4941 167.544,49.8275 162.5,49.5C 165.359,40.0903 168.526,30.7569 172,21.5C 174.242,17.0808 177.742,14.4141 182.5,13.5 Z"/></g>
<g><path style="opacity:1" fill="#19b1f0" d="M 238.5,12.5 C 250.838,12.3335 263.171,12.5001 275.5,13C 279.292,15.0527 280.458,18.2194 279,22.5C 275.932,31.205 272.765,39.8717 269.5,48.5C 264.544,49.4941 259.544,49.8275 254.5,49.5C 255.137,45.4224 256.47,41.5891 258.5,38C 251.833,37.3333 245.167,37.3333 238.5,38C 236.446,41.4984 234.779,45.1651 233.5,49C 228.467,49.8289 223.467,49.6623 218.5,48.5C 222.278,39.2763 225.778,29.943 229,20.5C 231.772,17.2166 234.939,14.5499 238.5,12.5 Z"/></g>
<g><path style="opacity:1" fill="#19b1f0" d="M 294.5,12.5 C 301.841,12.3337 309.174,12.5003 316.5,13C 317.931,13.4652 319.097,14.2986 320,15.5C 321.419,14.5399 322.919,13.7065 324.5,13C 331.833,12.3333 339.167,12.3333 346.5,13C 347.931,13.4652 349.097,14.2986 350,15.5C 350.667,18.1667 350.667,20.8333 350,23.5C 346.833,31.8333 343.667,40.1667 340.5,48.5C 335.5,49.8333 330.5,49.8333 325.5,48.5C 328.833,39.5 332.167,30.5 335.5,21.5C 331.8,18.6677 328.3,19.0011 325,22.5C 321.932,31.205 318.765,39.8717 315.5,48.5C 310.544,49.4941 305.544,49.8275 300.5,49.5C 303.91,39.605 306.91,29.605 309.5,19.5C 306.552,19.2229 303.719,19.5562 301,20.5C 296.8,29.9347 293.3,39.6014 290.5,49.5C 285.5,49.5 280.5,49.5 275.5,49.5C 278.132,39.2275 281.632,29.2275 286,19.5C 288.441,16.5464 291.275,14.2131 294.5,12.5 Z"/></g>
<g><path style="opacity:1" fill="#fbfdfe" d="M 78.5,19.5 C 84.5,19.5 90.5,19.5 96.5,19.5C 95.0523,26.6791 92.8857,33.6791 90,40.5C 89.5,41 89,41.5 88.5,42C 82.1405,42.8306 75.8072,42.6639 69.5,41.5C 71.9806,33.8832 74.9806,26.5499 78.5,19.5 Z"/></g>
<g><path style="opacity:1" fill="#f8fcfe" d="M 134.5,19.5 C 140.5,19.5 146.5,19.5 152.5,19.5C 152.78,22.2724 152.113,24.7724 150.5,27C 143.833,27.6667 137.167,27.6667 130.5,27C 131.449,24.2664 132.783,21.7664 134.5,19.5 Z"/></g>
<g><path style="opacity:1" fill="#f9fcfe" d="M 245.5,19.5 C 251.5,19.5 257.5,19.5 263.5,19.5C 264.368,29.298 260.035,32.9647 250.5,30.5C 247.167,30.3333 243.833,30.1667 240.5,30C 241.694,26.2382 243.361,22.7382 245.5,19.5 Z"/></g>
<g><path style="opacity:1" fill="#4ac1ed" d="M 184.5,29.5 C 190.31,30.4896 196.31,30.8229 202.5,30.5C 196.322,31.8174 189.988,31.8174 183.5,30.5C 183.624,29.8933 183.957,29.56 184.5,29.5 Z"/></g>
<g><path style="opacity:1" fill="#f8fcfe" d="M 143.5,42.5 C 137.31,42.8229 131.31,42.4896 125.5,41.5C 126.783,35.0195 130.783,32.6861 137.5,34.5C 140.752,34.5207 143.919,34.854 147,35.5C 147.265,38.5342 146.098,40.8675 143.5,42.5 Z"/></g>
<g><path style="opacity:1" fill="#65ccf1" d="M 20.5,42.5 C 30.1896,42.1682 39.8563,42.5016 49.5,43.5C 49.3764,44.1067 49.0431,44.44 48.5,44.5C 39.1667,43.8333 29.8333,43.1667 20.5,42.5 Z"/></g>
<g><path style="opacity:1" fill="#62cbf1" d="M 125.5,41.5 C 131.31,42.4896 137.31,42.8229 143.5,42.5C 137.322,43.8174 130.988,43.8174 124.5,42.5C 124.624,41.8933 124.957,41.56 125.5,41.5 Z"/></g>
</svg>
